HIERARCHY
ROOT Hips
{
	OFFSET 0.00000 0.00000 0.00000
	CHANNELS 6 Xposition Yposition Zposition Yrotation Zrotation Xrotation 
	JOINT Lumbar
	{
		OFFSET 0 0 0
		CHANNELS 3 Zrotation Xrotation Yrotation
		JOINT Neck
		{
			OFFSET 0.00 0.2701 0.00
			CHANNELS 3 Zrotation Xrotation Yrotation
			End Site
			{
				OFFSET 0.00 0.1379 0.00
			}
		}
		JOINT RightShoulder
		{
			OFFSET 0.0119 0.2289 0.1181
			CHANNELS 3 Zrotation Xrotation Yrotation
			JOINT RightElbow
			{
				OFFSET 0.00 -0.1475 0.00
				CHANNELS 2 Zrotation Yrotation
				JOINT RightWrist
				{
					OFFSET 0.00 -0.1605 0.00
					CHANNELS 2 Zrotation Xrotation
					End Site
					{
						OFFSET 0.0040 -0.1068 0.0006
					}
				}
			}
		}
		JOINT LeftShoulder
		{
			OFFSET 0.0119 0.2289 -0.1181
			CHANNELS 3 Zrotation Xrotation Yrotation
			JOINT LeftElbow
			{
				OFFSET 0.00 -0.1475 0.00
				CHANNELS 2 Zrotation Yrotation
				JOINT LeftWrist
				{
					OFFSET 0.00 -0.1605 0.00
					CHANNELS 2 Zrotation Xrotation
					End Site
					{
						OFFSET 0.0040 -0.1068 -0.0006
					}
				}
			}
		}
	}
	JOINT RightHip
	{
		OFFSET 0.0316 -0.0424 0.0458
		CHANNELS 3 Zrotation Xrotation Yrotation
		JOINT RightKnee
		{
			OFFSET 0.00 -0.2438 0.00
			CHANNELS 1 Zrotation
			JOINT RightAnkle
			{
				OFFSET 0.00 -0.2449 0.00
				CHANNELS 3 Zrotation Xrotation Yrotation
				End Site
				{
					OFFSET 0.1237 -0.0542 0.0051
				}
			}
		}
	}
	JOINT LeftHip
	{
		OFFSET 0.0316 -0.0424 -0.0458
		CHANNELS 3 Zrotation Xrotation Yrotation
		JOINT LeftKnee
		{
			OFFSET 0.00 -0.2438 0.00
			CHANNELS 1 Zrotation
			JOINT LeftAnkle
			{
				OFFSET 0.00 -0.2449 0.00
				CHANNELS 3 Zrotation Xrotation Yrotation
				End Site
				{
					OFFSET 0.1237 -0.0542 -0.0051
				}
			}
		}
	}
}
MOTION
Frames: 22
Frame Time: 0.02
0.41695 0.07473 -0.15911 384.25485 -25.94364 -11.82163 41.68781 1.75906 -20.07244 9.27724 0.73614 -2.11994 -6.1384 -72.26287 -24.3437 34.42239 76.74793 10.68905 -4.4384 -7.90517 -0.92865 -54.3598 98.95676 -99.2036 33.79079 0.99069 50.32094 0.29668 -17.11671 -28.0857 -6.59377 -0.61224 -2.5504 26.43182 13.66976 -5.1931 -42.47535 -8.19518 2.55647 3.55431
0.42365 0.07707 -0.16031 384.75878 -25.75714 -11.90789 41.38421 1.95926 -19.73648 9.26796 0.33877 -2.11994 -5.89144 -72.33223 -24.26602 34.2782 77.16267 10.3778 -4.37172 -8.18646 -0.72291 -54.35869 99.17925 -99.52882 33.86235 0.95634 48.62175 0.7658 -17.01411 -26.89309 -6.53502 -0.67206 -2.57549 29.03111 13.50932 -5.03904 -46.72505 -8.17283 2.73057 3.63867
0.42968 0.07914 -0.16156 385.32505 -25.63 -11.89935 41.04264 2.10232 -19.33244 9.2714 -0.16149 -2.11994 -5.57323 -72.52781 -24.03603 34.0881 77.5461 9.93338 -4.33565 -8.52137 -0.52238 -54.36044 99.36406 -99.82673 34.00427 0.92903 47.11482 1.31409 -16.07502 -25.72067 -6.45562 -0.8072 -2.63506 31.76005 13.16882 -4.55059 -50.50488 -8.04412 2.93547 3.73294
0.43599 0.08132 -0.1628 385.85925 -25.48081 -11.93001 40.72351 2.26891 -18.95162 9.2681 -0.62346 -2.11994 -5.30283 -72.67008 -23.87558 33.92563 77.94599 9.55834 -4.28222 -8.82902 -0.32825 -54.36134 99.56178 -100.12909 34.11093 0.89931 45.52235 1.81242 -15.55585 -24.53239 -6.38831 -0.90317 -2.67678 34.42007 12.91872 -4.17492 -54.40252 -7.9643 3.11963 3.81943
0.44236 0.08355 -0.16398 386.40975 -25.30986 -11.97586 40.3812 2.44616 -18.60112 9.26794 -1.05284 -2.11994 -4.97256 -72.79676 -23.72035 33.73591 78.34788 9.14581 -4.24336 -9.14893 -0.0969 -54.36125 99.77913 -100.46815 34.23393 0.8663 43.91205 2.36194 -14.89862 -23.35647 -6.31053 -1.01544 -2.72553 37.14992 12.63166 -3.95587 -58.75173 -7.88321 3.33194 3.91968
0.44845 0.08562 -0.1653 386.94163 -25.19898 -11.96869 40.07864 2.5877 -18.17311 9.26521 -1.57319 -2.11994 -4.74804 -72.98566 -23.51665 33.59142 78.73301 8.77966 -4.18224 -9.45522 0.05549 -54.36415 99.94547 -100.72359 34.33973 0.84149 42.38818 2.82742 -14.31711 -22.16466 -6.24885 -1.11491 -2.76939 39.75328 12.37667 -3.33872 -62.02396 -7.77957 3.49317 3.99371
0.45397 0.08739 -0.16695 387.39798 -25.23611 -11.83028 39.89537 2.6419 -17.53635 9.24532 -2.32081 -2.11994 -4.83246 -73.31117 -23.20191 33.58444 79.0886 8.57541 -4.04194 -9.72078 -0.00728 -54.36695 99.98608 -100.7482 34.36753 0.84164 41.05889 3.03221 -14.16334 -20.93654 -6.23921 -1.1508 -2.78666 41.99055 12.28535 -1.65152 -62.51863 -7.63362 3.50433 3.99197
0.45923 0.089 -0.16874 387.83495 -25.3324 -11.64354 39.75361 2.66253 -16.82643 9.22403 -3.15553 -2.11994 -5.02462 -73.69536 -22.84464 33.62405 79.42498 8.42209 -3.87981 -9.96919 -0.14952 -54.37368 99.9755 -100.69002 34.37745 0.84929 39.81075 3.15264 -14.1032 -19.6916 -6.24399 -1.17959 -2.80183 44.08959 12.22784 0.41505 -61.92576 -7.46939 3.46326 3.96363
0.4646 0.09067 -0.17048 388.28638 -25.4038 -11.48402 39.59284 2.70028 -16.15742 9.2076 -3.94939 -2.11994 -5.16765 -74.05543 -22.51597 33.64133 79.76296 8.24488 -3.73439 -10.21881 -0.25658 -54.38365 99.98412 -100.67391 34.40383 0.85064 38.52518 3.31849 -13.99324 -18.44889 -6.24286 -1.21065 -2.81743 46.23832 12.13421 2.27201 -61.77049 -7.31747 3.44719 3.94815
0.46996 0.09242 -0.17214 388.716 -25.4686 -11.29823 39.43112 2.72832 -15.45287 9.17255 -4.75321 -2.11994 -5.31099 -74.40973 -22.14546 33.66225 80.13103 8.06682 -3.56193 -10.49746 -0.36036 -54.37327 100.00807 -100.63935 34.3979 0.86363 37.24899 3.45616 -13.9053 -17.23037 -6.24623 -1.22308 -2.82427 48.44722 12.11935 4.29504 -61.83466 -7.1456 3.42716 3.92992
0.47529 0.09395 -0.17402 389.18577 -25.56071 -11.15789 39.28202 2.7692 -14.80687 9.1773 -5.55443 -2.11994 -5.47767 -74.78762 -21.85083 33.68685 80.43114 7.90355 -3.43956 -10.71168 -0.48917 -54.40522 99.98907 -100.62239 34.45365 0.85508 35.96936 3.63265 -13.77946 -15.9561 -6.23401 -1.30328 -2.86368 50.49649 11.95396 6.06133 -61.19453 -7.01154 3.40217 3.91076
0.48058 0.09496 -0.17643 389.76929 -25.71116 -11.14728 39.15562 2.85538 -14.33191 9.27928 -6.33647 -2.11994 -5.7045 -75.22157 -21.80407 33.71411 80.55727 7.77668 -3.46633 -10.74471 -0.67273 -54.56115 99.85856 -100.68724 34.68773 0.77581 34.66718 3.92682 -13.75256 -14.54517 -6.2629 -1.29091 -2.85772 52.13392 11.33824 6.99159 -58.83419 -6.9942 3.37997 3.89758
0.48584 0.09576 -0.17906 390.39364 -25.88719 -11.1861 39.04123 2.9556 -13.92015 9.4236 -7.11049 -2.11994 -5.94751 -75.6754 -21.83112 33.74322 80.61413 7.66237 -3.54324 -10.71442 -0.87775 -54.75805 99.68784 -100.77045 34.98361 0.67592 33.35725 4.26442 -13.65263 -13.07802 -6.26134 -1.39159 -2.90619 53.61538 10.57556 7.65304 -55.81426 -7.01499 3.35411 3.88415
0.49113 0.09664 -0.18162 391.00053 -26.053 -11.20759 38.92256 3.04864 -13.48559 9.55723 -7.88169 -2.11994 -6.16875 -76.11628 -21.80623 33.76889 80.69694 7.5374 -3.59321 -10.71804 -1.06958 -54.93081 99.53926 -100.8368 35.24824 0.59211 32.04455 4.58846 -13.43345 -11.62565 -6.21374 -1.63436 -3.02327 55.17106 9.89857 8.46089 -53.12358 -7.01326 3.32682 3.86916
0.49635 0.09757 -0.18407 391.60325 -26.21522 -11.20515 38.79952 3.14393 -13.02411 9.65533 -8.68377 -2.11994 -6.45379 -76.57664 -21.85558 33.80615 80.80236 7.43398 -3.65926 -10.70032 -1.27871 -55.12679 99.37243 -100.93585 35.52498 0.48188 30.7584 4.88375 -13.83383 -10.21077 -6.41117 -1.0913 -2.76108 56.70904 9.14345 9.18822 -50.26315 -7.0312 3.30916 3.85944
0.50171 0.09834 -0.18679 392.22324 -26.38994 -11.26556 38.68895 3.23821 -12.6338 9.83671 -9.4179 -2.11994 -6.60936 -76.99934 -21.77071 33.82035 80.84455 7.28934 -3.70488 -10.71111 -1.45584 -55.28436 99.23488 -100.97264 35.79227 0.41963 29.41773 5.25006 -12.95888 -8.71393 -6.1012 -2.17285 -3.28316 58.24722 8.51497 10.00398 -47.62264 -7.01942 3.27326 3.84011
0.50747 0.09872 -0.19017 392.89255 -26.59524 -11.48219 38.60144 3.32688 -12.43246 10.24452 -9.97033 -2.11994 -6.3948 -77.32116 -21.27851 33.75991 80.72928 7.01655 -3.67382 -10.82552 -1.53916 -55.32317 99.18683 -100.83106 36.01071 0.51342 27.89606 5.80417 -8.29018 -6.92508 -4.30757 -8.05086 -6.11873 59.83406 8.27954 11.21863 -45.68113 -6.90009 3.17045 3.78504
0.51339 0.09893 -0.19382 393.57572 -26.81166 -11.76132 38.52785 3.41379 -12.29931 10.73329 -10.45335 -2.11994 -6.05066 -77.6024 -20.65289 33.67807 80.55336 6.70381 -3.62172 -10.96894 -1.5892 -55.32227 99.16999 -100.62775 36.21892 0.65328 26.32532 6.42791 -2.39295 -5.07042 -2.02074 -15.49807 -9.71211 61.42365 8.17541 12.51421 -44.00195 -6.75284 3.05267 3.72206
0.51925 0.09921 -0.19738 394.24509 -27.02098 -12.01588 38.45269 3.50169 -12.13036 11.18063 -10.96525 -2.11994 -5.77072 -77.89693 -20.1002 33.61253 80.4045 6.4164 -3.58499 -11.09329 -1.65413 -55.3414 99.14006 -100.45346 36.43705 0.75914 24.79793 7.01913 2.75035 -3.29832 -0.01912 -22.00371 -12.85222 63.00823 8.0058 13.71093 -42.25422 -6.62884 2.95371 3.66902
0.52503 0.09954 -0.2008 394.94772 -27.23927 -12.2571 38.35621 3.59057 -11.98456 11.64944 -11.48863 -2.11994 -5.46817 -78.21476 -19.49617 33.5188 80.25315 6.09879 -3.5268 -11.24117 -1.7207 -55.35405 99.10459 -100.27255 36.63553 0.9171 23.18182 7.61691 8.71654 -1.30277 2.23995 -29.47279 -16.45181 64.60992 7.85437 15.15568 -40.27001 -6.46083 2.80481 3.58954
0.53103 0.09971 -0.20459 395.5836 -27.44196 -12.53887 38.3094 3.67516 -11.80504 12.09168 -11.97115 -2.11994 -5.18275 -78.47313 -18.9689 33.47935 80.09621 5.83487 -3.506 -11.34663 -1.77587 -55.36965 99.08795 -100.09444 36.87111 0.98072 21.73846 8.21527 13.26645 0.24327 4.08134 -35.31254 -19.27625 66.1702 7.69974 16.11267 -38.84793 -6.37828 2.75521 3.56278
0.53755 0.09951 -0.20929 396.03502 -27.59166 -12.92898 38.37772 3.76198 -11.52387 12.44522 -12.36263 -2.11994 -4.96904 -78.58551 -18.66601 33.58964 79.91529 5.72563 -3.60794 -11.33667 -1.8058 -55.40761 99.12 -99.90306 37.21568 0.74686 20.78833 8.81232 13.53525 0.52153 4.6346 -36.20245 -19.7457 67.68763 7.49089 15.65126 -38.93191 -6.52966 2.99387 3.68777
